<?xml version="1.0"?>
<svg width="21" height="18" xmlns="http://www.w3.org/2000/svg" xmlns:svg="http://www.w3.org/2000/svg">
 <g class="layer">
  <title>Layer 1</title>
  <path d="m19.38,9.27c2.16,-2.12 2.16,-5.57 0,-7.68c-2.17,-2.12 -5.68,-2.12 -7.85,0l-1.05,1.06l-1.05,-1.04c-2.16,-2.14 -5.68,-2.14 -7.82,-0.02c-1.05,1.03 -1.61,2.4 -1.61,3.85c0,1.45 0.58,2.82 1.61,3.85l8.87,8.71l8.9,-8.73zm-18.01,-3.83c0,-1.09 0.43,-2.1 1.22,-2.86c0.82,-0.8 1.87,-1.2 2.92,-1.2c1.05,0 2.1,0.4 2.91,1.2l2.06,2l2.06,-2.02c1.61,-1.58 4.24,-1.58 5.83,0c0.77,0.76 1.22,1.77 1.22,2.86c0,1.1 -0.43,2.1 -1.22,2.86l-7.89,7.76l-7.89,-7.74c-0.77,-0.78 -1.22,-1.78 -1.22,-2.86z" fill="black" id="svg_1"/>
 </g>
</svg>